<svg width="28" height="28" viewBox="0 0 28 28" fill="none" xmlns="http://www.w3.org/2000/svg">
<path fill-rule="evenodd" clip-rule="evenodd" d="M4.95837 0H23.0416C25.7833 0 28 2.21667 28 4.95837V22.3417C28 25.0834 25.7833 27.3 23.0416 27.3H4.95837C2.21667 27.3 0 25.0834 0 22.3417V4.95837C0 2.21667 2.21667 0 4.95837 0ZM6.30005 19.145V7.14001C6.30005 7.12158 6.30176 7.10498 6.30542 7.09021C6.31226 7.06323 6.32544 7.04285 6.34583 7.02954C6.36365 7.01782 6.38708 7.01172 6.41663 7.01172C6.61499 7.01172 6.80164 7.01172 7.06995 7C7.1781 6.99548 7.28796 6.99268 7.40027 6.99036L7.51404 6.98804C7.6571 6.98523 7.8042 6.9823 7.95667 6.97668C8.12036 6.97058 8.29041 6.96765 8.4668 6.96472C8.62976 6.96191 8.79797 6.95898 8.97168 6.95337C9.33337 6.94165 9.68335 6.94165 10.0333 6.94165C10.99 6.94165 11.7833 7.05835 12.4366 7.30334C13.02 7.50171 13.5566 7.82837 14 8.26001C14.3733 8.6333 14.665 9.08838 14.8517 9.58997C15.0266 10.08 15.12 10.5817 15.12 11.1067C15.12 12.11 14.8867 12.9384 14.42 13.5917C13.9534 14.245 13.3 14.735 12.5416 15.015C11.7483 15.3066 10.8733 15.4116 9.91663 15.4116C9.76453 15.4116 9.64001 15.4116 9.53918 15.4098C9.45447 15.4082 9.3866 15.4053 9.33337 15.4C9.29199 15.3959 9.24463 15.3932 9.19092 15.3915C9.09338 15.3883 8.97461 15.3883 8.83167 15.3883V19.1333C8.84338 19.215 8.78503 19.285 8.70337 19.2966H8.65662H6.43994C6.34668 19.2966 6.30005 19.25 6.30005 19.145ZM8.84338 9.26331V13.1833C8.90356 13.1876 8.96204 13.1919 9.01904 13.1956C9.1167 13.2019 9.20984 13.2067 9.29834 13.2067H9.91663C10.0693 13.2067 10.222 13.1989 10.3739 13.1831C10.5468 13.1652 10.7185 13.137 10.8878 13.0985C11.0128 13.0702 11.1365 13.0363 11.2583 12.9967C11.6317 12.8917 11.9584 12.67 12.215 12.3783C12.46 12.0867 12.5767 11.6899 12.5767 11.1766C12.5884 10.8149 12.495 10.4534 12.3083 10.1383C12.11 9.83496 11.83 9.60168 11.4917 9.47339C11.0601 9.29834 10.5934 9.22839 10.115 9.23999C9.81165 9.23999 9.54333 9.23999 9.32166 9.25171C9.08838 9.23999 8.92505 9.25171 8.84338 9.26331ZM21.28 12.075C21.6766 12.1566 22.05 12.285 22.4 12.4717C22.4467 12.495 22.505 12.495 22.61 12.4717C22.6309 12.4579 22.6475 12.4357 22.6576 12.4102C22.6644 12.3928 22.6683 12.3739 22.6683 12.355V10.4534C22.6683 10.439 22.6672 10.4247 22.6654 10.4104C22.6611 10.3781 22.6531 10.3457 22.645 10.3134C22.6217 10.2667 22.575 10.22 22.5283 10.2084C22.2134 10.08 21.875 9.98669 21.525 9.93994C21.0466 9.87 20.5566 9.83496 20.0784 9.83496C19.25 9.83496 18.5616 9.96338 18.0133 10.2433C17.5117 10.4767 17.08 10.85 16.7883 11.3167C16.5316 11.7483 16.3917 12.2267 16.3917 12.7284C16.38 13.1367 16.4734 13.545 16.66 13.9183C16.8817 14.3149 17.1851 14.6533 17.5466 14.91C18.0601 15.26 18.6083 15.54 19.2034 15.75C19.775 15.9717 20.16 16.1466 20.3467 16.2983C20.5333 16.45 20.6267 16.6017 20.6267 16.765C20.6267 16.975 20.4983 17.1733 20.3116 17.255C20.1017 17.36 19.7866 17.4183 19.3434 17.4183C18.8767 17.4183 18.41 17.36 17.9667 17.2433C17.4534 17.1267 16.975 16.9399 16.52 16.6716C16.485 16.6483 16.45 16.6367 16.415 16.66C16.3958 16.6729 16.3835 16.6927 16.3765 16.7139C16.3706 16.7312 16.3683 16.7493 16.3683 16.765V18.795C16.3567 18.8883 16.415 18.97 16.4967 19.0167C16.87 19.1917 17.2783 19.3199 17.6866 19.39C18.2117 19.495 18.7367 19.5416 19.2733 19.5416C20.1133 19.5416 20.8134 19.4133 21.385 19.1683C21.91 18.9584 22.365 18.5967 22.6917 18.13C22.995 17.675 23.1583 17.1267 23.1466 16.5784C23.1583 16.1583 23.0649 15.75 22.8783 15.3767C22.6566 14.98 22.3417 14.6533 21.9567 14.4083C21.3966 14.0583 20.79 13.7667 20.16 13.5566C20.0421 13.5076 19.9242 13.4564 19.8073 13.4031C19.6464 13.3298 19.4871 13.2527 19.3317 13.1716C19.1801 13.09 19.04 12.985 18.9351 12.8567C18.865 12.7633 18.8184 12.6583 18.8184 12.5533C18.8184 12.4484 18.8534 12.3317 18.9116 12.2383C18.9933 12.1217 19.1217 12.04 19.2733 12.005C19.495 11.9467 19.74 11.9116 19.9734 11.9233C20.4166 11.9233 20.8484 11.9817 21.28 12.075Z" fill="#E7D9FF"/>
</svg>
