<svg width="28" height="28" viewBox="0 0 28 28" fill="none" xmlns="http://www.w3.org/2000/svg">
<path fill-rule="evenodd" clip-rule="evenodd" d="M23.0416 0H4.95837C2.21667 0 0 2.21667 0 4.95837V22.3417C0 25.0834 2.21667 27.3 4.95837 27.3H23.0416C25.7833 27.3 28 25.0834 28 22.3417V4.95837C28 2.21667 25.7833 0 23.0416 0ZM9.19336 16.3334H13.5333L14.49 19.11C14.5133 19.1917 14.595 19.25 14.6766 19.2383H17.115C17.2317 19.2383 17.2667 19.1801 17.2317 19.0516L12.9734 7.03503C12.9617 6.97668 12.915 6.94165 12.8217 6.94165H9.80005C9.7417 6.95337 9.69495 7.01172 9.70667 7.06995C9.70667 7.32666 9.68335 7.58337 9.63672 7.82837C9.60999 7.90857 9.58704 7.98486 9.5658 8.05737C9.54993 8.11145 9.53503 8.16345 9.52002 8.21338L5.76331 19.0283C5.72839 19.1683 5.76331 19.2383 5.89172 19.2383H8.08496C8.18994 19.25 8.28333 19.1801 8.30664 19.075L9.19336 16.3334ZM12.8334 13.965H9.87C10.045 13.475 10.22 12.9266 10.3833 12.3317C10.4987 11.9709 10.6096 11.6104 10.719 11.2551C10.7865 11.0359 10.8533 10.8187 10.92 10.605C11.0834 10.1034 11.2117 9.60168 11.3167 9.09998H11.34C11.3853 9.25525 11.4305 9.41772 11.4778 9.5874C11.5157 9.72363 11.5551 9.8645 11.5967 10.01C11.6899 10.3484 11.795 10.6866 11.9116 11.0483C12.0283 11.41 12.1333 11.76 12.25 12.1217C12.355 12.4717 12.46 12.8101 12.5649 13.125C12.67 13.4283 12.7633 13.72 12.8334 13.965ZM18.795 8.57495C19.075 8.84338 19.4484 8.995 19.8334 8.98328C20.23 9.00671 20.6267 8.85498 20.895 8.57495C21.175 8.28333 21.3149 7.89832 21.3033 7.50171C21.3149 7.1167 21.175 6.74329 20.9183 6.46338C20.6616 6.19495 20.3116 6.05505 19.8567 6.05505C19.4717 6.05505 19.0984 6.19495 18.8184 6.46338C18.5383 6.73169 18.3867 7.10498 18.3983 7.50171C18.3867 7.89832 18.5266 8.28333 18.795 8.57495ZM18.5266 10.1267V19.11C18.5266 19.2267 18.585 19.2966 18.7017 19.2966H20.9883C21.0934 19.2966 21.14 19.2383 21.14 19.11V10.1267C21.14 10.0745 21.1284 10.0337 21.1039 10.006C21.0791 9.97803 21.041 9.96338 20.9883 9.96338H18.6783C18.5734 9.96338 18.5266 10.01 18.5266 10.1267Z" fill="#E7D9FF"/>
</svg>
